<svg xmlns="http://www.w3.org/2000/svg" xmlns:xlink="http://www.w3.org/1999/xlink" width="185.862" height="62.558" viewBox="0 0 185.862 62.558">
  <defs>
    <filter id="active_-_bottom" x="0" y="0" width="185.862" height="62.558" filterUnits="userSpaceOnUse">
      <feOffset dx="-2" dy="3" input="SourceAlpha"/>
      <feGaussianBlur stdDeviation="1" result="blur"/>
      <feFlood flood-color="#262a30" flood-opacity="0.122"/>
      <feComposite operator="in" in2="blur"/>
      <feComposite in="SourceGraphic"/>
    </filter>
  </defs>
  <g transform="matrix(1, 0, 0, 1, 0, 0)" filter="url(#active_-_bottom)">
    <g id="active_-_bottom-2" data-name="active - bottom" transform="translate(-64.8 -318.52)" fill="#fff">
      <path d="M 221.3866271972656 373.5726013183594 L 98.08203887939453 373.5726013183594 C 94.46760559082031 373.5726013183594 90.96054077148438 372.8644409179688 87.65824127197266 371.4677124023438 C 84.46933746337891 370.1189575195312 81.60574340820312 368.1884155273438 79.14699554443359 365.7296447753906 C 76.68824005126953 363.2709350585938 74.75767517089844 360.4073486328125 73.40892791748047 357.2184143066406 C 72.01219940185547 353.9161376953125 71.30399322509766 350.4090576171875 71.30399322509766 346.7946166992188 C 71.30399322509766 343.1801452636719 72.01219940185547 339.6730041503906 73.40890502929688 336.3705444335938 C 74.75767517089844 333.1814880371094 76.68822479248047 330.3176879882812 79.14694976806641 327.8587646484375 C 81.60569763183594 325.3997802734375 84.46929168701172 323.4690551757812 87.65817260742188 322.1201477050781 C 90.96051788330078 320.7232360839844 94.46760559082031 320.0149841308594 98.08203887939453 320.0149841308594 L 221.3866271972656 320.0149841308594 C 225.0010681152344 320.0149841308594 228.5082244873047 320.7232360839844 231.8107147216797 322.1201477050781 C 234.9997406005859 323.4690551757812 237.8635101318359 325.3997802734375 240.3224639892578 327.8587341308594 C 242.7814025878906 330.3176574707031 244.712158203125 333.1814270019531 246.06103515625 336.3704833984375 C 247.4579467773438 339.6729736328125 248.1662139892578 343.1801452636719 248.1662139892578 346.7946166992188 C 248.1662139892578 350.4090576171875 247.4579315185547 353.9161682128906 246.06103515625 357.218505859375 C 244.7121276855469 360.4073486328125 242.7813873291016 363.2709655761719 240.3224029541016 365.7297058105469 C 237.8634948730469 368.1884155273438 234.9997253417969 370.1189880371094 231.8106536865234 371.4677124023438 C 228.5082244873047 372.8644409179688 225.0010681152344 373.5726013183594 221.3866271972656 373.5726013183594 Z" stroke="none"/>
      <path d="M 98.08203125 321.5149841308594 C 84.12106323242188 321.5149841308594 72.80398559570312 332.8335266113281 72.80398559570312 346.7946166992188 C 72.80398559570312 360.7556457519531 84.12106323242188 372.0726013183594 98.08203125 372.0726013183594 L 221.3866271972656 372.0726013183594 C 235.3476257324219 372.0726013183594 246.6662292480469 360.7556457519531 246.6662292480469 346.7946166992188 C 246.6662292480469 332.8335266113281 235.3476257324219 321.5149841308594 221.3866271972656 321.5149841308594 L 98.08203125 321.5149841308594 M 98.08203125 318.5149841308594 L 221.3866271972656 318.5149841308594 C 225.2029113769531 318.5149841308594 228.9066772460938 319.2631530761719 232.3950500488281 320.7386779785156 C 235.7628784179688 322.1631774902344 238.7869110107422 324.2018737792969 241.3831329345703 326.7980651855469 C 243.9793395996094 329.394287109375 246.0180358886719 332.4183044433594 247.4425659179688 335.7861328125 C 248.9180908203125 339.2745361328125 249.6662292480469 342.9783325195312 249.6662292480469 346.7946166992188 C 249.6662292480469 350.6109313964844 248.9180908203125 354.3146057128906 247.4425354003906 357.8028564453125 C 246.0180053710938 361.1705322265625 243.9792785644531 364.1943969726562 241.3830261230469 366.7904052734375 C 238.7868347167969 369.3863525390625 235.7628173828125 371.4248352050781 232.3949279785156 372.8492126464844 C 228.9066314697266 374.3245544433594 225.202880859375 375.0726013183594 221.3866271972656 375.0726013183594 L 98.08203125 375.0726013183594 C 94.26577758789062 375.0726013183594 90.56210327148438 374.3245544433594 87.07392883300781 372.8491821289062 C 83.70620727539062 371.4248046875 80.68235778808594 369.3863220214844 78.08633422851562 366.7903137207031 C 75.49031066894531 364.1943054199219 73.4517822265625 361.1704406738281 72.02738952636719 357.802734375 C 70.55206298828125 354.3145751953125 69.80398559570312 350.6109008789062 69.80398559570312 346.7946166992188 C 69.80398559570312 342.9783325195312 70.55203247070312 339.2745971679688 72.02738952636719 335.7862548828125 C 73.45175170898438 332.4183959960938 75.49026489257812 329.3943786621094 78.08622741699219 326.7981567382812 C 80.6822509765625 324.201904296875 83.70613098144531 322.1632080078125 87.07380676269531 320.7386779785156 C 90.56205749511719 319.2631530761719 94.26576232910156 318.5149841308594 98.08203125 318.5149841308594 Z" stroke="none" fill="#abd64d"/>
    </g>
  </g>
</svg>
