<svg id="binary_income" xmlns="http://www.w3.org/2000/svg" width="59.541" height="59.626" viewBox="0 0 59.541 59.626">
  <path id="Path_62445" data-name="Path 62445" d="M-672.1-999.5a17.438,17.438,0,0,1,2.249.738,6.938,6.938,0,0,1,3.678,8.043,7.01,7.01,0,0,1-7.186,5.183,7.013,7.013,0,0,1-6.448-5.872,7,7,0,0,1,5.634-7.974c.15-.028.3-.078.444-.117Z" transform="translate(697.438 999.5)" fill="#2a3141"/>
  <path id="Path_62446" data-name="Path 62446" d="M-661.191-850.828c.923-.992.441-2.713.455-3.923a.741.741,0,0,1,.208-.518c1.4-1.1,2.837-2.156,4.224-3.275a6.831,6.831,0,0,1,9.443.692c.063.072.117.152.221.289-.277.213-.555.408-.812.628-1.9,1.629-3.776,3.284-5.692,4.892a36.291,36.291,0,0,1-13.995,7.575,38.447,38.447,0,0,1-11.827,1.052,33.421,33.421,0,0,1-12.313-3.019,1.491,1.491,0,0,1-.73-.547,1.516,1.516,0,0,1-.129-.751l0-11.892a3.107,3.107,0,0,1,.148-1.161,2.875,2.875,0,0,1,.972-1.115,9.841,9.841,0,0,1,5.966-2.412,8.588,8.588,0,0,1,5.212,2.054,6.968,6.968,0,0,0,1.715,1.188,4.509,4.509,0,0,0,1.4.257c2.673.157,5.457-.465,7.976.444a7.074,7.074,0,0,1,4.552,6.533l-10.937-.036a5.049,5.049,0,0,0-2.214.327,1.727,1.727,0,0,0-1.05,1.807c.247,1.073,1.637,1.327,2.738,1.358l9.556.269c1.337.038,3.688.356,4.77-.57A1.794,1.794,0,0,0-661.191-850.828Z" transform="translate(706.181 902.981)" fill="#2a3141"/>
  <path id="Path_62447" data-name="Path 62447" d="M-741.223-852.057H-730.7v17.41h-10.519Z" transform="translate(741.223 894.229)" fill="#2a3141"/>
  <path id="Path_62448" data-name="Path 62448" d="M-594.427-981.234a5.247,5.247,0,0,1,5.218-5.223,5.259,5.259,0,0,1,5.255,5.251,5.254,5.254,0,0,1-5.283,5.222A5.245,5.245,0,0,1-594.427-981.234Z" transform="translate(636.414 990.188)" fill="#2a3141"/>
  <path id="Path_62449" data-name="Path 62449" d="M-620.251-917q-1.6-1.284-3.2-2.579a1.816,1.816,0,0,0-.154-.1l2.884,7.025c.028-.109.044-.153.051-.2.178-1.278.353-2.558.536-3.836A.292.292,0,0,0-620.251-917Z" transform="translate(657.247 942.506)" fill="#2a3141"/>
  <path id="Path_62450" data-name="Path 62450" d="M-607.426-911.108c-.969.156-1.937.311-2.9.477a.257.257,0,0,0-.152.178c-.161,1.063-.312,2.127-.464,3.19-.035.246-.068.492-.1.738l.051.014,3.722-4.6A1.305,1.305,0,0,0-607.426-911.108Z" transform="translate(648.281 936.393)" fill="#2a3141"/>
  <path id="Path_62451" data-name="Path 62451" d="M-605.381-915.676l.02.043,2.251-.353-.874-.877Z" transform="translate(644.235 940.499)" fill="#2a3141"/>
  <path id="Path_62452" data-name="Path 62452" d="M-616.5-920.572l-5.277-1.028-.023.049,3.282,2.7Z" transform="translate(655.96 943.881)" fill="#2a3141"/>
  <path id="Path_62453" data-name="Path 62453" d="M-643.274-949.828a12.237,12.237,0,0,0-12.21,12.218,12.242,12.242,0,0,0,12.2,12.23,12.252,12.252,0,0,0,12.245-12.191A12.246,12.246,0,0,0-643.274-949.828Zm5.485,10.755q-2.589,3.225-5.184,6.445a.4.4,0,0,1-.728-.114q-1.984-4.772-3.961-9.546a.371.371,0,0,1,.01-.314.54.54,0,0,1,.539-.2c.709.144,1.419.282,2.129.423,1.7.337,3.4.678,5.106,1.007a1.232,1.232,0,0,1,.7.37c.434.458.891.894,1.333,1.344a2.123,2.123,0,0,1,.21.307A2.016,2.016,0,0,1-637.788-939.073Z" transform="translate(680.008 964.035)" fill="#2a3141"/>
</svg>
