<svg xmlns="http://www.w3.org/2000/svg" width="54.974" height="54.98" viewBox="0 0 54.974 54.98">
  <g id="current_earning_limit" transform="translate(1483.131 66.591)">
    <path id="Path_62755" data-name="Path 62755" d="M-1401.356-39.746c-.136.952-.241,1.909-.412,2.854a24.76,24.76,0,0,1-9.069,15.237,24.246,24.246,0,0,1-13.159,5.385c-1.447.142-2.92.022-4.333.022-.135-1.1-.2-2.208-.423-3.289s-.588-2.126-.907-3.244l1.424.135A18.789,18.789,0,0,0-1408.1-38.055a18.8,18.8,0,0,0-14.8-21.732,18.822,18.822,0,0,0-21.749,13.277c-.087.307-.13.584-.579.631a10.456,10.456,0,0,0-6.233,2.945c-.074.07-.152.136-.228.2l-.156-.044c.2-1.328.293-2.685.622-3.981,2.656-10.444,9.269-16.89,19.75-19.354.917-.216,1.875-.259,2.813-.386.156-.021.309-.063.464-.1h3.221a2.175,2.175,0,0,0,.356.088,24.4,24.4,0,0,1,13.665,5.35,24.724,24.724,0,0,1,9.191,15.332c.172.945.276,1.9.412,2.854Z" transform="translate(-26.802)" fill="#2a3141"/>
    <path id="Path_62756" data-name="Path 62756" d="M-1373.218,28.587a10.812,10.812,0,0,0-6.491-16.452A14.5,14.5,0,0,1-1377.94,8.2a15.583,15.583,0,0,1,16.382-6.928A15.611,15.611,0,0,1-1349.4,14.127,15.566,15.566,0,0,1-1363.3,32a15.255,15.255,0,0,1-7.052-.959,1.493,1.493,0,0,1-.457-.259C-1371.6,30.068-1372.391,29.342-1373.218,28.587Zm2.538-7.611a5.87,5.87,0,0,0,3.826,5.337.6.6,0,0,1,.475.685,1.627,1.627,0,0,0,1.617,1.858,1.618,1.618,0,0,0,1.583-1.838.634.634,0,0,1,.508-.717,5.871,5.871,0,0,0,3.418-7.564A5.907,5.907,0,0,0-1364.7,14.9a2.7,2.7,0,0,1-2.76-2.522,2.694,2.694,0,0,1,2.538-2.845,2.686,2.686,0,0,1,2.824,2.617,1.627,1.627,0,0,0,1.653,1.673,1.609,1.609,0,0,0,1.559-1.808,5.7,5.7,0,0,0-3.552-5.189c-.561-.25-.774-.487-.753-1.1a1.557,1.557,0,0,0-1.472-1.559,1.621,1.621,0,0,0-1.7,1.327c-.041.226.019.474-.04.692a.706.706,0,0,1-.317.442,5.922,5.922,0,0,0-3.857,6.7,5.936,5.936,0,0,0,5.8,4.793,2.685,2.685,0,0,1,2.684,2.707,2.694,2.694,0,0,1-2.622,2.661,2.689,2.689,0,0,1-2.745-2.646,1.622,1.622,0,0,0-1.679-1.645A1.632,1.632,0,0,0-1370.68,20.977Z" transform="translate(-88.615 -57.866)" fill="#2a3141"/>
    <path id="Path_62757" data-name="Path 62757" d="M-1470.787,226.868q-5.235,0-10.469,0a1.642,1.642,0,0,1-1.874-1.876,39.528,39.528,0,0,1,.238-5.188,11.8,11.8,0,0,1,5.115-7.943.439.439,0,0,1,.611,0,10.669,10.669,0,0,0,12.755,0,.439.439,0,0,1,.611-.009,12,12,0,0,1,5.242,8.736,42.266,42.266,0,0,1,.106,4.717,1.589,1.589,0,0,1-1.758,1.556q-5.127.005-10.255,0Z" transform="translate(0 -238.48)" fill="#2a3141"/>
    <path id="Path_62758" data-name="Path 62758" d="M-1441.926,99.912a7.53,7.53,0,0,1,7.54,7.478,7.531,7.531,0,0,1-7.519,7.554,7.532,7.532,0,0,1-7.513-7.507A7.53,7.53,0,0,1-1441.926,99.912Z" transform="translate(-28.887 -142.664)" fill="#2a3141"/>
  </g>
</svg>
