<svg xmlns="http://www.w3.org/2000/svg" width="56.993" height="53.961" viewBox="0 0 56.993 53.961">
  <g id="direct_income" transform="translate(0)">
    <path id="Path_62442" data-name="Path 62442" d="M-925.419-523.684c.67.39.764.613.612,1.4q-.824,4.262-1.64,8.526a1,1,0,0,1-.622.849.976.976,0,0,1-1.038-.279c-.819-.723-1.647-1.435-2.471-2.151-.064-.055-.13-.108-.217-.179l-.78.9a121.294,121.294,0,0,1-18.1,17.248,86.327,86.327,0,0,1-19.911,11.619,53.006,53.006,0,0,1-9.861,3.023c-.326.063-.655.11-.983.162a1,1,0,0,1-1.308-.647v-.456a1.244,1.244,0,0,1,1.122-.719,43.286,43.286,0,0,0,8.785-2.441,79.2,79.2,0,0,0,16.289-8.566,107.578,107.578,0,0,0,15.418-12.733q4.089-4.035,7.8-8.419c.043-.05.083-.1.143-.179-.077-.071-.15-.141-.226-.208q-1.181-1.029-2.363-2.058a.922.922,0,0,1,.315-1.667q4.163-1.457,8.326-2.909a2.693,2.693,0,0,0,.251-.117Z" transform="translate(981.737 523.684)" fill="#2a3141"/>
    <path id="Path_62444" data-name="Path 62444" d="M-924.755-415.837h-6.126a1.267,1.267,0,0,0,.609-1.268q-.01-20.8,0-41.61a.56.56,0,0,0-.348-.6,1.207,1.207,0,0,1-.155.251q-3.978,4.141-7.964,8.273c-.422.437-.872.848-1.324,1.254a.623.623,0,0,0-.222.516q.007,15.817,0,31.635c0,.142.007.285,0,.427a1.038,1.038,0,0,0,.67,1.089h-4.639a1.124,1.124,0,0,0,.661-1.225q-.013-14.392-.006-28.785v-.475l-1.022.862a106.819,106.819,0,0,1-8.766,6.679.391.391,0,0,0-.2.368q.007,10.8,0,21.6a1.016,1.016,0,0,0,.687.985h-4.6c0-.013,0-.039,0-.043a1.057,1.057,0,0,0,.6-1.07q-.011-8.949,0-17.9v-1.635c-.1.053-.178.084-.246.125a81.39,81.39,0,0,1-9.509,5.023.314.314,0,0,0-.225.335q.008,7.111,0,14.221a.987.987,0,0,0,.641.929h-4.639c.6-.245.671-.7.67-1.244-.012-4.123-.007-8.246-.007-12.369v-.4c-.493.179-.951.356-1.416.512a69.76,69.76,0,0,1-6.963,2.033,13.331,13.331,0,0,1-1.35.206c-.17.02-.249.054-.248.249q.008,5.045,0,10.089a1.022,1.022,0,0,0,.683.953h-2.237v.037h56.982Z" transform="translate(981.737 469.772)" fill="#2a3141"/>
    <g id="Group_9320" data-name="Group 9320" transform="translate(0 4.702)">
      <ellipse id="Ellipse_1260" data-name="Ellipse 1260" cx="12.539" cy="12.539" rx="12.539" ry="12.539" fill="#2a3141"/>
      <path id="Path_62461" data-name="Path 62461" d="M-916.152-879.612a1.9,1.9,0,0,0-1.083-.569c-2.624-.508-5.245-1.033-7.867-1.553-1.093-.217-2.188-.43-3.28-.652a.832.832,0,0,0-.831.313.573.573,0,0,0-.015.484q3.042,7.358,6.1,14.709A.613.613,0,0,0-922-866.7q4-4.961,7.988-9.93a3.129,3.129,0,0,0,.241-.432,3.313,3.313,0,0,0-.324-.474C-914.779-878.235-915.484-878.906-916.152-879.612Zm-10.25-1.153,8.132,1.584-3.11,2.651-5.057-4.159Zm4.519,5.457c-.283,1.969-.552,3.94-.827,5.91-.01.07-.034.137-.078.305l-4.444-10.824a2.7,2.7,0,0,1,.238.149c1.643,1.325,3.282,2.655,4.93,3.974A.451.451,0,0,1-921.884-875.308Zm.265,6.254-.079-.022c.052-.379.1-.758.157-1.137.235-1.639.467-3.279.714-4.916a.4.4,0,0,1,.235-.275c1.49-.256,2.982-.494,4.475-.735a1.943,1.943,0,0,1,.234,0Zm2.45-7.729-.031-.067,2.152-1.828,1.347,1.352Z" transform="translate(934.063 886.944)" fill="#fff"/>
    </g>
  </g>
</svg>
