<svg xmlns="http://www.w3.org/2000/svg" xmlns:xlink="http://www.w3.org/1999/xlink" width="176" height="74" viewBox="0 0 176 74">
  <defs>
    <filter id="Rectangle_3086" x="50" y="26" width="24" height="48" filterUnits="userSpaceOnUse">
      <feOffset dy="3" input="SourceAlpha"/>
      <feGaussianBlur stdDeviation="3" result="blur"/>
      <feFlood flood-color="#4f7591" flood-opacity="0.29"/>
      <feComposite operator="in" in2="blur"/>
      <feComposite in="SourceGraphic"/>
    </filter>
    <filter id="Rectangle_3087" x="0" y="26" width="23" height="48" filterUnits="userSpaceOnUse">
      <feOffset dy="3" input="SourceAlpha"/>
      <feGaussianBlur stdDeviation="3" result="blur-2"/>
      <feFlood flood-color="#4f7591" flood-opacity="0.29"/>
      <feComposite operator="in" in2="blur-2"/>
      <feComposite in="SourceGraphic"/>
    </filter>
    <filter id="Rectangle_3088" x="75" y="7" width="25" height="67" filterUnits="userSpaceOnUse">
      <feOffset dy="3" input="SourceAlpha"/>
      <feGaussianBlur stdDeviation="3" result="blur-3"/>
      <feFlood flood-color="#4f7591" flood-opacity="0.29"/>
      <feComposite operator="in" in2="blur-3"/>
      <feComposite in="SourceGraphic"/>
    </filter>
    <filter id="Rectangle_3089" x="26" y="20" width="24" height="54" filterUnits="userSpaceOnUse">
      <feOffset dy="3" input="SourceAlpha"/>
      <feGaussianBlur stdDeviation="3" result="blur-4"/>
      <feFlood flood-color="#4f7591" flood-opacity="0.29"/>
      <feComposite operator="in" in2="blur-4"/>
      <feComposite in="SourceGraphic"/>
    </filter>
    <filter id="Rectangle_3090" x="101" y="20" width="24" height="54" filterUnits="userSpaceOnUse">
      <feOffset dy="3" input="SourceAlpha"/>
      <feGaussianBlur stdDeviation="3" result="blur-5"/>
      <feFlood flood-color="#4f7591" flood-opacity="0.29"/>
      <feComposite operator="in" in2="blur-5"/>
      <feComposite in="SourceGraphic"/>
    </filter>
    <filter id="Rectangle_3091" x="127" y="6" width="23" height="68" filterUnits="userSpaceOnUse">
      <feOffset dy="3" input="SourceAlpha"/>
      <feGaussianBlur stdDeviation="3" result="blur-6"/>
      <feFlood flood-color="#4f7591" flood-opacity="0.29"/>
      <feComposite operator="in" in2="blur-6"/>
      <feComposite in="SourceGraphic"/>
    </filter>
    <filter id="Rectangle_3092" x="151" y="0" width="25" height="74" filterUnits="userSpaceOnUse">
      <feOffset dy="3" input="SourceAlpha"/>
      <feGaussianBlur stdDeviation="3" result="blur-7"/>
      <feFlood flood-color="#4f7591" flood-opacity="0.29"/>
      <feComposite operator="in" in2="blur-7"/>
      <feComposite in="SourceGraphic"/>
    </filter>
  </defs>
  <g id="direct_income" transform="translate(9.402 5.747)">
    <g transform="matrix(1, 0, 0, 1, -9.4, -5.75)" filter="url(#Rectangle_3086)">
      <rect id="Rectangle_3086-2" data-name="Rectangle 3086" width="6" height="30" rx="3" transform="translate(59 32)" fill="#72b9e8"/>
    </g>
    <g transform="matrix(1, 0, 0, 1, -9.4, -5.75)" filter="url(#Rectangle_3087)">
      <rect id="Rectangle_3087-2" data-name="Rectangle 3087" width="5" height="30" rx="2.5" transform="translate(9 32)" fill="#72b9e8"/>
    </g>
    <g transform="matrix(1, 0, 0, 1, -9.4, -5.75)" filter="url(#Rectangle_3088)">
      <rect id="Rectangle_3088-2" data-name="Rectangle 3088" width="7" height="49" rx="3.5" transform="translate(84 13)" fill="#72b9e8"/>
    </g>
    <g transform="matrix(1, 0, 0, 1, -9.4, -5.75)" filter="url(#Rectangle_3089)">
      <rect id="Rectangle_3089-2" data-name="Rectangle 3089" width="6" height="36" rx="3" transform="translate(35 26)" fill="#72b9e8"/>
    </g>
    <g transform="matrix(1, 0, 0, 1, -9.4, -5.75)" filter="url(#Rectangle_3090)">
      <rect id="Rectangle_3090-2" data-name="Rectangle 3090" width="6" height="36" rx="3" transform="translate(110 26)" fill="#72b9e8"/>
    </g>
    <g transform="matrix(1, 0, 0, 1, -9.4, -5.75)" filter="url(#Rectangle_3091)">
      <rect id="Rectangle_3091-2" data-name="Rectangle 3091" width="5" height="50" rx="2.5" transform="translate(136 12)" fill="#72b9e8"/>
    </g>
    <g transform="matrix(1, 0, 0, 1, -9.4, -5.75)" filter="url(#Rectangle_3092)">
      <rect id="Rectangle_3092-2" data-name="Rectangle 3092" width="7" height="56" rx="3.5" transform="translate(160 6)" fill="#72b9e8"/>
    </g>
  </g>
</svg>
