<svg xmlns="http://www.w3.org/2000/svg" width="63.508" height="60.006" viewBox="0 0 63.508 60.006">
  <g id="roi_income" transform="translate(0 0)">
    <g id="Group_9313" data-name="Group 9313" transform="translate(0 3.512)">
      <path id="Path_62430" data-name="Path 62430" d="M-213.967,67.755a38.021,38.021,0,0,1-11.259-1.6,12.912,12.912,0,0,1-4.5-2.3c-1.92-1.629-1.933-3.537-.03-5.188a12.3,12.3,0,0,1,4.289-2.243,34.324,34.324,0,0,1,9.72-1.621,37.058,37.058,0,0,1,12.438,1.379,32.728,32.728,0,0,1,4.249,1.847,4.637,4.637,0,0,1,1.193.94,2.942,2.942,0,0,1-.118,4.685,13.123,13.123,0,0,1-5.2,2.651A38.547,38.547,0,0,1-213.967,67.755Zm-4.415-6.185c.027.181.049.3.059.416.085.934.306,1.833,1.315,2.145a2.373,2.373,0,0,0,2.615-.836,18.632,18.632,0,0,0,1.226-1.792c.361-.544.682-1.118,1.085-1.627a.78.78,0,0,1,.7-.209.778.778,0,0,1,.338.62,3.908,3.908,0,0,1-.2,1.207c-.185.562-.442,1.1-.667,1.646,1.282.615,1.42.566,1.917-.662.109-.269.171-.561.3-.816a.749.749,0,0,1,.391-.363c1.077-.3,1.121-.339,1.127-1.525a2.972,2.972,0,0,0-.621-.036c-.465.069-.578-.141-.6-.568a1.919,1.919,0,0,0-1.137-1.874,1.962,1.962,0,0,0-2.264.539,19.223,19.223,0,0,0-1.606,2.223,12.173,12.173,0,0,1-.928,1.377,1.065,1.065,0,0,1-.88.277c-.175-.043-.4-.529-.345-.757.209-.885.515-1.748.8-2.614a5.184,5.184,0,0,1,.289-.611c-1.377-.627-1.423-.616-2,.614-.174.371-.272.781-.469,1.138a.943.943,0,0,1-.534.464c-1.018.181-1.167.353-1.1,1.561Z" transform="translate(243.372 -40.584)" fill="#2a3141"/>
      <path id="Path_62431" data-name="Path 62431" d="M-251.274,59.489c.45-11.115,5.573-19.373,15.261-24.82a28.568,28.568,0,0,1,7.247-2.767c1.344-.33,2.289.4,2.163,1.626-.074.724-.484,1.131-1.4,1.354a28.18,28.18,0,0,0-9.359,4.219,24.546,24.546,0,0,0-8.63,30.415c3.9,8.415,10.7,13.265,19.738,15.023a40.385,40.385,0,0,0,4.772.444c1.068.078,1.707.652,1.681,1.6a1.515,1.515,0,0,1-1.713,1.476c-13.354-.018-25.31-8.727-28.757-21.282A28.079,28.079,0,0,1-251.274,59.489Z" transform="translate(251.274 -31.56)" fill="#2a3141"/>
      <path id="Path_62432" data-name="Path 62432" d="M-172.783,54.914a24.622,24.622,0,0,0-5.3-11.19,26.7,26.7,0,0,0-15.138-9.166c-.189-.042-.379-.081-.567-.129A1.516,1.516,0,0,1-195,32.651a1.484,1.484,0,0,1,1.848-1.209,40.326,40.326,0,0,1,5.359,1.579c9.64,4.015,15.809,11.02,18.031,21.325.1.469.289.587.721.573.775-.024,1.553-.022,2.328,0,.911.026,1.332.7.887,1.484q-2.193,3.856-4.442,7.68a.929.929,0,0,1-1.7-.017q-2.244-3.825-4.436-7.683a.923.923,0,0,1,.843-1.464C-174.671,54.892-173.779,54.914-172.783,54.914Z" transform="translate(229.158 -31.391)" fill="#2a3141"/>
      <path id="Path_62433" data-name="Path 62433" d="M-230.86,75.565c1.98,2.47,4.625,3.384,7.349,4.027a40.277,40.277,0,0,0,20-.238,22.185,22.185,0,0,0,3.06-1.136,7.788,7.788,0,0,0,3.331-2.588,2.564,2.564,0,0,1-.135,2.862,7.277,7.277,0,0,1-3.122,2.42,26.8,26.8,0,0,1-8.906,2.249,38.555,38.555,0,0,1-15.546-1.244,21.925,21.925,0,0,1-4.392-2.037,3.306,3.306,0,0,1-1.894-3.13A8.939,8.939,0,0,1-230.86,75.565Z" transform="translate(243.35 -48.761)" fill="#2a3141"/>
      <path id="Path_62434" data-name="Path 62434" d="M-230.853,81.713a10.98,10.98,0,0,0,6.009,3.679,38.9,38.9,0,0,0,13.752,1.389,32.74,32.74,0,0,0,8.008-1.38c2.258-.711,4.437-1.575,5.943-3.568a2.379,2.379,0,0,1-.3,3.036,11.176,11.176,0,0,1-2.687,2.056,23.279,23.279,0,0,1-8.29,2.31,40.9,40.9,0,0,1-15.873-.959,14.366,14.366,0,0,1-5.187-2.386,3.4,3.4,0,0,1-1.643-2.986A9.495,9.495,0,0,1-230.853,81.713Z" transform="translate(243.352 -51.179)" fill="#2a3141"/>
      <path id="Path_62435" data-name="Path 62435" d="M-230.861,87.91c1.82,2.309,4.247,3.238,6.779,3.877a39.232,39.232,0,0,0,21.745-.457,9.8,9.8,0,0,0,5.192-3.3,2.545,2.545,0,0,1-.27,3.05,7.982,7.982,0,0,1-3.088,2.249,26.234,26.234,0,0,1-8.13,2.118,40.583,40.583,0,0,1-16-1.086,13.489,13.489,0,0,1-5.007-2.42,3.274,3.274,0,0,1-1.475-2.848A9.891,9.891,0,0,1-230.861,87.91Z" transform="translate(243.353 -53.616)" fill="#2a3141"/>
      <path id="Path_62436" data-name="Path 62436" d="M-197.119,69.494a2.559,2.559,0,0,1-.539,3.313,14.121,14.121,0,0,1-3.369,2.209,29.733,29.733,0,0,1-10.913,2.192,38.179,38.179,0,0,1-13.154-1.493,12.489,12.489,0,0,1-4.8-2.5,3.1,3.1,0,0,1-1.219-2.741,8.117,8.117,0,0,1,.266-1.027c2.158,2.605,5.074,3.514,8.077,4.158A39.675,39.675,0,0,0-202.858,73,10.592,10.592,0,0,0-197.119,69.494Z" transform="translate(243.355 -46.358)" fill="#2a3141"/>
      <path id="Path_62438" data-name="Path 62438" d="M-163.646,95.675c.056-.146.156-.466.3-.765.528-1.113,1.086-2.212,1.6-3.329a1.584,1.584,0,0,1,2.059-.963,1.494,1.494,0,0,1,.812,2.048c-.6,1.346-1.252,2.668-1.943,3.969a1.428,1.428,0,0,1-1.743.689A1.569,1.569,0,0,1-163.646,95.675Z" transform="translate(216.816 -54.636)" fill="#2a3141"/>
      <path id="Path_62439" data-name="Path 62439" d="M-192.243,118.545a1.44,1.44,0,0,1,1.1-1.343q1.794-.585,3.586-1.178a1.55,1.55,0,0,1,1.993.847,1.519,1.519,0,0,1-.845,1.994c-1.313.491-2.649.939-4,1.3A1.5,1.5,0,0,1-192.243,118.545Z" transform="translate(228.061 -64.634)" fill="#2a3141"/>
      <path id="Path_62440" data-name="Path 62440" d="M-175.052,109.329a8.157,8.157,0,0,1,.861-1.284c.758-.746,1.581-1.425,2.368-2.143a1.559,1.559,0,0,1,2.27-.128,1.544,1.544,0,0,1-.1,2.316c-.856.819-1.755,1.595-2.661,2.36a1.326,1.326,0,0,1-1.683.172A6.57,6.57,0,0,1-175.052,109.329Z" transform="translate(221.301 -60.471)" fill="#2a3141"/>
    </g>
    <path id="Path_62460" data-name="Path 62460" d="M-921.465-880.742a1.131,1.131,0,0,0-.645-.339c-1.562-.3-3.122-.615-4.682-.924-.651-.129-1.3-.256-1.952-.388a.5.5,0,0,0-.494.186.341.341,0,0,0-.009.288q1.81,4.379,3.632,8.754a.365.365,0,0,0,.668.1q2.379-2.953,4.754-5.91a1.86,1.86,0,0,0,.144-.257,1.952,1.952,0,0,0-.193-.282C-920.648-879.922-921.067-880.322-921.465-880.742Zm-6.1-.686,4.839.942-1.851,1.578-3.01-2.475Zm2.689,3.248c-.168,1.172-.328,2.345-.492,3.517-.006.041-.021.082-.046.182l-2.645-6.442a1.584,1.584,0,0,1,.142.088c.978.789,1.953,1.58,2.934,2.365A.268.268,0,0,1-924.876-878.181Zm.158,3.722-.047-.013c.031-.226.061-.451.093-.677.14-.975.278-1.951.425-2.926a.235.235,0,0,1,.14-.164c.887-.152,1.775-.294,2.663-.437a1.141,1.141,0,0,1,.139,0Zm1.458-4.6-.018-.04,1.281-1.088.8.8Z" transform="translate(953.823 882.404)" fill="#2a3141"/>
  </g>
</svg>
