<svg xmlns="http://www.w3.org/2000/svg" width="56.759" height="52.699" viewBox="0 0 56.759 52.699">
  <g id="total_withdrawal" transform="translate(0 0)">
    <path id="Path_62464" data-name="Path 62464" d="M-1526-868.816h32.428v.667q0,14.693,0,29.387a6.082,6.082,0,0,1-6.406,6.4q-9.817,0-19.633,0A6.086,6.086,0,0,1-1526-838.72q-.006-14.725,0-29.45Zm20.2,13.241a2.237,2.237,0,0,0,1.976-1.453,1.9,1.9,0,0,0-.74-2.288,20.048,20.048,0,0,0-2.676-1.255c-.322-.131-.506-.22-.584-.6a1.959,1.959,0,0,0-1.692-1.576,1.687,1.687,0,0,0-1.948.972,2.326,2.326,0,0,1-1.679,1.52,3.656,3.656,0,0,0-.754.459c-2.373,1.655-3.178,6.443.74,8.177a25.477,25.477,0,0,0,2.563.88c.761.244,1.546.42,2.294.7a.668.668,0,0,1,.19,1.252,2.594,2.594,0,0,1-1.279.436,5.554,5.554,0,0,1-3.309-.866,2.033,2.033,0,0,0-2.872.62,1.985,1.985,0,0,0,.785,2.824,16.139,16.139,0,0,0,2.422,1.055c.352.129.536.247.619.645a1.989,1.989,0,0,0,1.831,1.574,1.917,1.917,0,0,0,1.982-1.275,1.353,1.353,0,0,1,1.007-1,4.715,4.715,0,0,0,3.214-4.546,4.316,4.316,0,0,0-2.941-4.414,24,24,0,0,0-2.461-.794c-.7-.217-1.425-.386-2.114-.643a.718.718,0,0,1-.142-1.371,2.572,2.572,0,0,1,1.182-.365,5.381,5.381,0,0,1,3.194.819A9.85,9.85,0,0,0-1505.8-855.575Z" transform="translate(1538.171 885.064)" fill="#2a3141"/>
    <path id="Path_62465" data-name="Path 62465" d="M-1541.269-952.871h-56.7c-.016-.176-.042-.337-.042-.5,0-1.815-.011-3.629,0-5.444a6.061,6.061,0,0,1,6.217-6.2q22.157-.012,44.314,0a6.058,6.058,0,0,1,6.214,6.2C-1541.259-956.852-1541.269-954.893-1541.269-952.871Zm-12.1-8.087c-.7,0-1.393-.014-2.089,0a2.019,2.019,0,0,0-2.025,2,2.017,2.017,0,0,0,1.993,2.037q2.057.038,4.115,0a2.015,2.015,0,0,0,1.995-2.035,2.031,2.031,0,0,0-2.026-2.007C-1552.058-960.972-1552.713-960.958-1553.367-960.958Z" transform="translate(1598.024 965.015)" fill="#2a3141"/>
    <path id="Path_62466" data-name="Path 62466" d="M-1598.031-868.914h8.054v12.058c-5.051.842-8.122-2.415-8.06-6.251C-1598.005-865.023-1598.031-866.939-1598.031-868.914Z" transform="translate(1598.037 885.145)" fill="#2a3141"/>
    <path id="Path_62467" data-name="Path 62467" d="M-1301.747-868.729c0,2.4.181,4.78-.047,7.116a5.821,5.821,0,0,1-5.567,4.982c-.758.035-1.518.005-2.33.005v-12.1Z" transform="translate(1358.391 884.991)" fill="#2a3141"/>
  </g>
</svg>
