<svg xmlns="http://www.w3.org/2000/svg" width="22.146" height="22.034" viewBox="0 0 22.146 22.034">
  <g id="guide" transform="translate(-19615.71 3250)">
    <path id="Path_10832" data-name="Path 10832" d="M93.873,3.359H85.636a2.854,2.854,0,0,0-2.389,1.273,2.908,2.908,0,0,0-2.389-1.273h-8.1a.505.505,0,0,0-.513.513V23.407a.505.505,0,0,0,.513.513h8.1a2.356,2.356,0,0,1,1.831.982c0,.022.268.491.558.491a.522.522,0,0,0,.357-.223l.2-.268a2.356,2.356,0,0,1,1.831-.982h8.238a.505.505,0,0,0,.513-.513V3.873a.519.519,0,0,0-.514-.513ZM73.268,22.893V4.386h7.59a1.887,1.887,0,0,1,1.875,1.875s0,16.587.022,16.632Zm20.092,0H83.738c.022-.045.022-16.632.022-16.632a1.887,1.887,0,0,1,1.875-1.875H93.36Z" transform="translate(19543.469 -3253.359)" fill="#067cc2"/>
    <path id="Path_10833" data-name="Path 10833" d="M142,94.078h-5.4a.505.505,0,0,0-.513.513v3.951a.505.505,0,0,0,.513.513H142a.505.505,0,0,0,.513-.513V94.592A.519.519,0,0,0,142,94.078Zm-.513,3.951h-4.376V95.105h4.376Z" transform="translate(19482.174 -3340.462)" fill="#067cc2"/>
    <path id="Path_10834" data-name="Path 10834" d="M141.459,292.32h-5.425a.513.513,0,1,0,0,1.027h5.425a.513.513,0,0,0,0-1.027Z" transform="translate(19482.711 -3530.801)" fill="#067cc2"/>
    <path id="Path_10835" data-name="Path 10835" d="M413.619,397.04h-5.425a.513.513,0,1,0,0,1.027h5.425a.513.513,0,0,0,0-1.027Z" transform="translate(19221.4 -3631.346)" fill="#067cc2"/>
    <path id="Path_10836" data-name="Path 10836" d="M413.619,297.92h-5.425a.513.513,0,1,0,0,1.027h5.425a.513.513,0,0,0,0-1.027Z" transform="translate(19221.4 -3536.177)" fill="#067cc2"/>
    <path id="Path_10837" data-name="Path 10837" d="M413.619,199.36h-5.425a.513.513,0,1,0,0,1.027h5.425a.513.513,0,0,0,0-1.027Z" transform="translate(19221.4 -3441.546)" fill="#067cc2"/>
    <path id="Path_10838" data-name="Path 10838" d="M408.194,101.265h5.425a.513.513,0,0,0,0-1.027h-5.425a.514.514,0,0,0,0,1.027Z" transform="translate(19221.4 -3346.376)" fill="#067cc2"/>
    <path id="Path_10839" data-name="Path 10839" d="M141.459,390.88h-5.425a.513.513,0,1,0,0,1.027h5.425a.505.505,0,0,0,.513-.513.519.519,0,0,0-.513-.513Z" transform="translate(19482.711 -3625.432)" fill="#067cc2"/>
  </g>
</svg>
