<svg xmlns="http://www.w3.org/2000/svg" width="54.974" height="49.776" viewBox="0 0 54.974 49.776">
  <g id="total_active_deposits" transform="translate(975.536 1489.252)">
    <path id="Path_62468" data-name="Path 62468" d="M-929.52-1444.922c0,.95,0,1.848,0,2.746a2.426,2.426,0,0,1-1.34,2.361,2.75,2.75,0,0,1-2.934-.181,2.335,2.335,0,0,1-1.033-2.031c-.009-.937,0-1.874,0-2.853h-26.338c0,.887,0,1.766,0,2.644a2.632,2.632,0,0,1-3.59,2.593,2.4,2.4,0,0,1-1.716-2.323c-.02-.955,0-1.911,0-2.913-.661-.036-1.28-.047-1.895-.107a7.985,7.985,0,0,1-7.15-7.833c-.025-5.843-.007-11.687-.008-17.53q0-5.337,0-10.673a8.008,8.008,0,0,1,8.251-8.228h38.434a8.019,8.019,0,0,1,8.281,8.259q0,13.88,0,27.761a8.041,8.041,0,0,1-8.3,8.309Zm-26.638-25.957a8.514,8.514,0,0,0-.473,7.526,1.611,1.611,0,0,1-.454,2.207,2.45,2.45,0,0,0,.025,3.68,2.523,2.523,0,0,0,3.7.066,6,6,0,0,0,.584-.588c.25-.314.479-.321.842-.141a8.366,8.366,0,0,0,7.466.256,1.724,1.724,0,0,1,2.421.467,2.422,2.422,0,0,0,3.637-.038,2.542,2.542,0,0,0,.125-3.663c-.3-.324-.611-.642-.941-.935a.48.48,0,0,1-.132-.663,8.85,8.85,0,0,0,.032-7.643.642.642,0,0,1,.1-.548c.292-.354.653-.65.962-.991a2.529,2.529,0,0,0-.141-3.62,2.529,2.529,0,0,0-3.62-.118,6.361,6.361,0,0,0-.663.665.587.587,0,0,1-.882.147,8.848,8.848,0,0,0-5.112-1.073,9.813,9.813,0,0,0-3.733,1.171,13.438,13.438,0,0,0-1.579-1.236,2.564,2.564,0,0,0-3.395.913,2.414,2.414,0,0,0,.323,3.3Z" transform="translate(0)" fill="#2a3141"/>
    <path id="Path_62469" data-name="Path 62469" d="M-811.607-1354.718a4.036,4.036,0,0,1-4.054-4.081,4.05,4.05,0,0,1,4.077-4.066,4.055,4.055,0,0,1,4.085,4.115A4.042,4.042,0,0,1-811.607-1354.718Z" transform="translate(-136.295 -107.747)" fill="#2a3141"/>
  </g>
</svg>
